<svg width="176" height="115" viewBox="0 0 176 115" fill="none" xmlns="http://www.w3.org/2000/svg">
<g filter="url(#filter0_i_150_6840)">
<path d="M77.852 0.493926C64.798 -0.502245 49.4695 4.69882 41.0669 19.8963L32.8313 22.1772C24.7697 21.4146 21.9972 19.5314 13.3184 22.7793C0.954081 27.4065 2.5002 40.0569 1.27582 52.4445C0.753225 57.7317 -1.5208 71.5279 2.85253 73.9459C9.53948 77.6431 22.428 78.6401 30.5922 77.3862C39.221 76.0609 40.4517 73.2163 41.9144 83.0133C42.6753 88.1091 44.5761 93.088 44.8066 98.2811C45.2268 107.748 59.5921 112.39 66.7671 105.867C75.2792 98.1279 78.5924 93.0408 86.9855 97.6813C98.7365 104.178 105.291 120.654 122.3 112.65C131.33 108.401 137.407 100.5 145.672 105.069C148.737 106.764 154.314 107.286 158.152 106.148C163.594 104.534 161.535 101.607 163.644 97.7932C166.96 91.7952 178.123 76.7352 175.121 70.7266C171.756 63.9912 164.366 58.9725 157.493 57.0568C153.981 56.0778 144.858 63.3598 142.444 62.0252C141.303 61.3943 143.755 47.1638 144.127 45.4902C145.949 37.2941 142.719 35.093 136.998 31.9296C126.36 26.0478 111.017 14.4012 96.9259 22.9366C92.9518 25.3438 92.2896 10.7792 91.2267 8.01528C89.563 3.68881 81.7731 0.793149 77.852 0.493926Z" fill="white"/>
</g>
<defs>
<filter id="filter0_i_150_6840" x="0.219238" y="0.375732" width="175.409" height="114.422" filterUnits="userSpaceOnUse" color-interpolation-filters="sRGB">
<feFlood flood-opacity="0" result="BackgroundImageFix"/>
<feBlend mode="normal" in="SourceGraphic" in2="BackgroundImageFix" result="shape"/>
<feColorMatrix in="SourceAlpha" type="matrix" values="0 0 0 0 0 0 0 0 0 0 0 0 0 0 0 0 0 0 127 0" result="hardAlpha"/>
<feOffset dy="-20"/>
<feComposite in2="hardAlpha" operator="arithmetic" k2="-1" k3="1"/>
<feColorMatrix type="matrix" values="0 0 0 0 0.992157 0 0 0 0 0.972549 0 0 0 0 0.937255 0 0 0 1 0"/>
<feBlend mode="normal" in2="shape" result="effect1_innerShadow_150_6840"/>
</filter>
</defs>
</svg>
