<svg width="227" height="109" viewBox="0 0 227 109" fill="none" xmlns="http://www.w3.org/2000/svg">
<g filter="url(#filter0_i_150_6843)">
<path d="M65.0256 1.70611C49.4205 7.1679 35.1367 19.1743 35.1367 36.595L27.1367 42.595C17.4062 45.8385 13.0318 45.531 5.13671 52.595C-6.11108 62.6588 3.6851 73.0144 10.1367 84.4839C12.8904 89.3793 19.0314 102.595 25.5812 102.595C35.596 102.595 51.0118 97.2143 59.5812 92.1506C68.6381 86.7987 68.2458 83.704 76.1367 91.595C80.2411 95.6994 85.5789 99.1477 89.1367 103.595C95.6226 111.702 115.044 108.804 119.137 99.595C123.993 88.6693 124.567 82.595 137.137 82.595C154.736 82.595 172.703 93.8782 187.137 78.595C194.8 70.4813 196.759 60.595 209.137 60.595C213.728 60.595 220.456 58.3465 224.137 55.4839C229.354 51.4257 225.137 49.8555 225.137 45.4839C225.137 38.6085 228.391 19.9685 221.137 16.1506C213.005 11.8709 201.346 11.0518 192.248 12.7061C187.598 13.5515 181.752 24.3728 178.137 24.3728C176.428 24.3728 170.216 10.6894 169.581 9.03944C166.473 0.95946 161.372 0.595001 152.803 0.595001C136.871 0.595001 111.887 -2.18252 101.137 12.1506C98.105 16.1929 88.1087 3.7278 85.1367 1.81722C80.4845 -1.17346 69.7129 0.0655447 65.0256 1.70611Z" fill="white"/>
</g>
<defs>
<filter id="filter0_i_150_6843" x="0" y="0" width="226.747" height="108.342" filterUnits="userSpaceOnUse" color-interpolation-filters="sRGB">
<feFlood flood-opacity="0" result="BackgroundImageFix"/>
<feBlend mode="normal" in="SourceGraphic" in2="BackgroundImageFix" result="shape"/>
<feColorMatrix in="SourceAlpha" type="matrix" values="0 0 0 0 0 0 0 0 0 0 0 0 0 0 0 0 0 0 127 0" result="hardAlpha"/>
<feOffset dy="-20"/>
<feComposite in2="hardAlpha" operator="arithmetic" k2="-1" k3="1"/>
<feColorMatrix type="matrix" values="0 0 0 0 0.992157 0 0 0 0 0.972549 0 0 0 0 0.937255 0 0 0 1 0"/>
<feBlend mode="normal" in2="shape" result="effect1_innerShadow_150_6843"/>
</filter>
</defs>
</svg>
