<svg width="1280" height="860" viewBox="0 0 1280 860" fill="none" xmlns="http://www.w3.org/2000/svg">
<rect width="1280" height="860" fill="#EAF2F9"/>
<rect y="685" width="1280" height="175" fill="#FDF8EF"/>
<path d="M24.2818 441.556C16.7918 442.593 1.79699 446.79 0 456V694H1280V338C1255.04 338 1227.03 342.16 1205.42 355.556C1189.96 365.138 1172.89 385.292 1170.62 403.889C1169.97 409.266 1169.65 420.89 1165.75 424.889C1161.3 429.443 1144.23 426.679 1137.56 429.556C1125.74 434.658 1116.62 445.217 1108.73 456C1100.09 467.805 1094.55 481.688 1085.96 493L1085.84 493.155C1081.2 499.28 1074.29 508.388 1066.23 509.889C1053.61 512.24 1048.47 514.298 1037.62 522C1024.28 531.466 1010.13 549.976 1004.99 565.778C1000.48 579.645 986.829 562.475 977.561 562C962.821 561.245 948.81 558 933.55 558C915.151 558 894.889 565.153 882.818 580C878.198 585.683 871.18 589.84 867.317 596C865.514 598.875 864.18 607.733 862.331 604.889C856.285 595.594 845.219 590.727 839.024 581.556C831.85 570.933 813.998 567.622 801.951 570.444C792.216 572.725 781.142 573.262 771.924 577.111C763.087 580.802 755.087 587.148 746.125 591C734.28 596.091 713.474 612.136 704.39 598.444C701.423 593.972 689.935 584.501 684.661 583C666.323 577.779 645.538 572.528 626.341 577C613.818 579.917 604.228 585.388 592.304 590C587.333 591.922 573.649 603.661 569.323 599.556C565.148 595.594 561.355 590.703 557.615 586.444C550.413 578.242 529.897 576 520.108 576C501.992 576 481.318 573.472 464.282 581.111C457.848 583.996 452.352 586.075 446.396 590C444.451 591.282 437.202 599.074 435.556 597.556C425.97 588.713 419.741 572 404.986 572C386.236 572 366.79 578.938 349.702 586.444C340.179 590.628 339.67 593.145 330.84 587.111C316.405 577.247 302.804 566.436 288.78 556C256.329 531.85 217.461 534.325 179.837 541C174.934 541.87 156.098 550.003 156.098 543.889C156.098 536.983 155.306 530.46 153.062 523.889C141.96 491.376 112.503 456.665 79.1328 448C60.5409 443.172 43.5325 438.889 24.2818 441.556Z" fill="white"/>
<path d="M24.2818 514.556C16.7918 515.593 1.79699 519.79 0 529V701H640H1280V411C1255.04 411 1227.03 415.16 1205.42 428.556C1189.96 438.138 1172.89 458.292 1170.62 476.889C1169.97 482.266 1169.65 493.89 1165.75 497.889C1161.3 502.443 1144.23 499.679 1137.56 502.556C1125.74 507.658 1116.62 518.217 1108.73 529C1100.09 540.805 1094.55 554.688 1085.96 566L1085.84 566.155C1081.2 572.28 1074.29 581.388 1066.23 582.889C1053.61 585.24 1048.47 587.298 1037.62 595C1024.28 604.466 1010.13 622.976 1004.99 638.778C1000.48 652.645 986.829 635.475 977.561 635C962.821 634.245 948.81 631 933.55 631C915.151 631 894.889 638.153 882.818 653C878.198 658.683 871.18 662.84 867.317 669C865.514 671.875 864.18 680.733 862.331 677.889C856.285 668.594 845.219 663.727 839.024 654.556C831.85 643.933 813.998 640.622 801.951 643.444C792.216 645.725 781.142 646.262 771.924 650.111C763.087 653.802 755.087 660.148 746.125 664C734.28 669.091 713.474 685.136 704.39 671.444C701.423 666.972 689.935 657.501 684.661 656C666.323 650.779 645.538 645.528 626.341 650C613.818 652.917 604.228 658.388 592.304 663C587.333 664.922 573.649 676.661 569.323 672.556C565.148 668.594 561.355 663.703 557.615 659.444C550.413 651.242 529.897 649 520.108 649C501.992 649 481.318 646.472 464.282 654.111C457.848 656.996 452.352 659.075 446.396 663C444.451 664.282 437.202 672.074 435.556 670.556C425.97 661.713 419.741 645 404.986 645C386.236 645 366.79 651.938 349.702 659.444C340.179 663.628 339.67 666.145 330.84 660.111C316.405 650.247 302.804 639.436 288.78 629C256.329 604.85 217.461 607.325 179.837 614C174.934 614.87 156.098 623.003 156.098 616.889C156.098 609.983 155.306 603.46 153.062 596.889C141.96 564.376 112.503 529.665 79.1328 521C60.5409 516.172 43.5325 511.889 24.2818 514.556Z" fill="#FDF8EF"/>
</svg>
