<svg width="32" height="32" viewBox="0 0 32 32" fill="none" xmlns="http://www.w3.org/2000/svg">
<path d="M24 9.4C24 9.04638 23.8595 8.70724 23.6095 8.45719C23.3594 8.20714 23.0203 8.06667 22.6667 8.06667L12 8C11.6464 8 11.3073 8.14048 11.0572 8.39052C10.8072 8.64057 10.6667 8.97971 10.6667 9.33333C10.6667 9.68696 10.8072 10.0261 11.0572 10.2761C11.3073 10.5262 11.6464 10.6667 12 10.6667H19.4133L8.38668 21.72C8.26171 21.844 8.16251 21.9914 8.09482 22.1539C8.02713 22.3164 7.99228 22.4907 7.99228 22.6667C7.99228 22.8427 8.02713 23.017 8.09482 23.1794C8.16251 23.3419 8.26171 23.4894 8.38668 23.6133C8.51063 23.7383 8.6581 23.8375 8.82057 23.9052C8.98305 23.9729 9.15733 24.0077 9.33334 24.0077C9.50936 24.0077 9.68363 23.9729 9.84611 23.9052C10.0086 23.8375 10.1561 23.7383 10.28 23.6133L21.3333 12.56V20C21.3333 20.3536 21.4738 20.6928 21.7239 20.9428C21.9739 21.1929 22.3131 21.3333 22.6667 21.3333C23.0203 21.3333 23.3594 21.1929 23.6095 20.9428C23.8595 20.6928 24 20.3536 24 20V9.4Z" fill="#FF6E77"/>
</svg>
